<svg width="24" height="24" viewBox="0 0 24 24" fill="none" xmlns="http://www.w3.org/2000/svg">
<path d="M20.2959 15.7957C20.1914 15.9006 20.0672 15.9838 19.9305 16.0406C19.7937 16.0974 19.6471 16.1266 19.4991 16.1266C19.351 16.1266 19.2044 16.0974 19.0676 16.0406C18.9309 15.9838 18.8067 15.9006 18.7022 15.7957L12 9.09354L5.29593 15.7957C5.08458 16.0071 4.79794 16.1258 4.49905 16.1258C4.20017 16.1258 3.91352 16.0071 3.70218 15.7957C3.49083 15.5844 3.3721 15.2977 3.3721 14.9989C3.3721 14.7 3.49083 14.4133 3.70218 14.202L11.2022 6.70198C11.3067 6.5971 11.4309 6.51388 11.5676 6.4571C11.7044 6.40032 11.851 6.37109 11.9991 6.37109C12.1471 6.37109 12.2937 6.40032 12.4305 6.4571C12.5672 6.51388 12.6914 6.5971 12.7959 6.70198L20.2959 14.202C20.4008 14.3065 20.484 14.4307 20.5408 14.5674C20.5976 14.7042 20.6268 14.8508 20.6268 14.9989C20.6268 15.1469 20.5976 15.2935 20.5408 15.4303C20.484 15.567 20.4008 15.6912 20.2959 15.7957Z" fill="#4543F2"/>
</svg>
