<svg width="24" height="24" viewBox="0 0 24 24" fill="none" xmlns="http://www.w3.org/2000/svg">
<path d="M21 12C21.0001 14.1192 20.2524 16.1704 18.8887 17.7924C17.5249 19.4144 15.6325 20.5032 13.5448 20.8669C11.4571 21.2307 9.30798 20.8461 7.47601 19.7808C5.64404 18.7156 4.24671 17.0381 3.53014 15.0438C2.81357 13.0494 2.82371 10.8662 3.55879 8.87865C4.29387 6.89107 5.70672 5.22662 7.54851 4.17847C9.3903 3.13031 11.5429 2.76569 13.6271 3.14881C15.7114 3.53193 17.5935 4.63823 18.9422 6.27285C19.0091 6.34819 19.0602 6.43624 19.0924 6.53176C19.1245 6.62728 19.1371 6.7283 19.1294 6.82879C19.1216 6.92928 19.0937 7.02718 19.0472 7.11663C19.0008 7.20608 18.9368 7.28526 18.8591 7.34943C18.7814 7.4136 18.6915 7.46144 18.5949 7.4901C18.4983 7.51877 18.3968 7.52766 18.2967 7.51626C18.1966 7.50485 18.0998 7.47338 18.012 7.42372C17.9243 7.37406 17.8475 7.30723 17.7863 7.22723C16.6832 5.88971 15.1508 4.97567 13.4497 4.64058C11.7487 4.3055 9.98416 4.57008 8.45621 5.3893C6.92827 6.20853 5.73133 7.53181 5.06902 9.13402C4.40671 10.7362 4.31994 12.5184 4.82346 14.1774C5.32699 15.8364 6.3897 17.2697 7.83083 18.2335C9.27196 19.1973 11.0025 19.632 12.728 19.4638C14.4535 19.2955 16.0675 18.5347 17.2953 17.3106C18.5231 16.0866 19.2889 14.475 19.4625 12.75H12C11.8011 12.75 11.6103 12.671 11.4697 12.5304C11.329 12.3897 11.25 12.199 11.25 12C11.25 11.8011 11.329 11.6104 11.4697 11.4697C11.6103 11.3291 11.8011 11.25 12 11.25H20.25C20.4489 11.25 20.6397 11.3291 20.7803 11.4697C20.921 11.6104 21 11.8011 21 12Z" fill="#858294"/>
</svg>
