<svg width="24" height="24" viewBox="0 0 24 24" fill="none" xmlns="http://www.w3.org/2000/svg">
<path d="M20.5603 10.1887L13.0603 2.68875C12.779 2.40766 12.3976 2.24976 12 2.24976C11.6023 2.24976 11.221 2.40766 10.9397 2.68875L3.43968 10.1887C3.29972 10.3277 3.18877 10.493 3.11328 10.6752C3.0378 10.8574 2.99929 11.0528 2.99999 11.25V20.25C2.99999 20.4489 3.07901 20.6397 3.21966 20.7803C3.36032 20.921 3.55108 21 3.74999 21H20.25C20.4489 21 20.6397 20.921 20.7803 20.7803C20.921 20.6397 21 20.4489 21 20.25V11.25C21.0007 11.0528 20.9622 10.8574 20.8867 10.6752C20.8112 10.493 20.7003 10.3277 20.5603 10.1887ZM19.5 19.5H4.49999V11.25L12 3.75L19.5 11.25V19.5Z" fill="#858294"/>
</svg>
