<svg width="44" height="40" viewBox="0 0 44 40" fill="none" xmlns="http://www.w3.org/2000/svg">
<path d="M22 10C22 7.87827 21.1571 5.84344 19.6569 4.34315C18.1566 2.84285 16.1217 2 14 2H2V32H16C17.5913 32 19.1174 32.6321 20.2426 33.7574C21.3679 34.8826 22 36.4087 22 38M22 10V38M22 10C22 7.87827 22.8429 5.84344 24.3431 4.34315C25.8434 2.84285 27.8783 2 30 2H42V32H28C26.4087 32 24.8826 32.6321 23.7574 33.7574C22.6321 34.8826 22 36.4087 22 38" stroke="#F5F5F7" stroke-width="4" stroke-linecap="round" stroke-linejoin="round"/>
</svg>
