<svg width="194" height="48" viewBox="0 0 194 48" fill="none" xmlns="http://www.w3.org/2000/svg">
<path d="M24 14C24 11.8783 23.1571 9.84344 21.6569 8.34315C20.1566 6.84285 18.1217 6 16 6H4V36H18C19.5913 36 21.1174 36.6321 22.2426 37.7574C23.3679 38.8826 24 40.4087 24 42M24 14V42M24 14C24 11.8783 24.8429 9.84344 26.3431 8.34315C27.8434 6.84285 29.8783 6 32 6H44V36H30C28.4087 36 26.8826 36.6321 25.7574 37.7574C24.6321 38.8826 24 40.4087 24 42" stroke="#4543F2" stroke-width="4" stroke-linecap="round" stroke-linejoin="round"/>
<path d="M70.6477 17.4204C70.5568 16.5038 70.1667 15.7917 69.4773 15.2841C68.7879 14.7765 67.8523 14.5227 66.6705 14.5227C65.8674 14.5227 65.1894 14.6364 64.6364 14.8636C64.0833 15.0833 63.6591 15.3901 63.3636 15.7841C63.0758 16.178 62.9318 16.625 62.9318 17.125C62.9167 17.5417 63.0038 17.9053 63.1932 18.2159C63.3902 18.5265 63.6591 18.7954 64 19.0227C64.3409 19.2424 64.7349 19.4356 65.1818 19.6023C65.6288 19.7614 66.1061 19.8977 66.6136 20.0114L68.7046 20.5114C69.7197 20.7386 70.6515 21.0417 71.5 21.4204C72.3485 21.7992 73.0833 22.2651 73.7046 22.8182C74.3258 23.3712 74.8068 24.0227 75.1477 24.7727C75.4962 25.5227 75.6743 26.3826 75.6818 27.3523C75.6743 28.7765 75.3106 30.0114 74.5909 31.0568C73.8788 32.0947 72.8485 32.9015 71.5 33.4773C70.1591 34.0454 68.5417 34.3295 66.6477 34.3295C64.7689 34.3295 63.1326 34.0417 61.7386 33.4659C60.3523 32.8901 59.2689 32.0379 58.4886 30.9091C57.7159 29.7727 57.3106 28.3674 57.2727 26.6932H62.0341C62.0871 27.4735 62.3106 28.125 62.7046 28.6477C63.1061 29.1629 63.6402 29.553 64.3068 29.8182C64.9811 30.0758 65.7424 30.2045 66.5909 30.2045C67.4243 30.2045 68.1477 30.0833 68.7614 29.8409C69.3826 29.5985 69.8636 29.2614 70.2046 28.8295C70.5455 28.3977 70.7159 27.9015 70.7159 27.3409C70.7159 26.8182 70.5606 26.3788 70.25 26.0227C69.947 25.6667 69.5 25.3636 68.9091 25.1136C68.3258 24.8636 67.6099 24.6364 66.7614 24.4318L64.2273 23.7954C62.2652 23.3182 60.7159 22.572 59.5796 21.5568C58.4432 20.5417 57.8788 19.1742 57.8864 17.4545C57.8788 16.0454 58.2538 14.8144 59.0114 13.7614C59.7765 12.7083 60.8258 11.8864 62.1591 11.2954C63.4924 10.7045 65.0076 10.4091 66.7046 10.4091C68.4318 10.4091 69.9394 10.7045 71.2273 11.2954C72.5227 11.8864 73.5303 12.7083 74.25 13.7614C74.9697 14.8144 75.3409 16.0341 75.3636 17.4204H70.6477Z" fill="#4543F2"/>
<path d="M78.9006 34V16.5454H83.7415V34H78.9006ZM81.3324 14.2954C80.6127 14.2954 79.9953 14.0568 79.4801 13.5795C78.9725 13.0947 78.7188 12.5151 78.7188 11.8409C78.7188 11.1742 78.9725 10.6023 79.4801 10.125C79.9953 9.64014 80.6127 9.39772 81.3324 9.39772C82.0521 9.39772 82.6657 9.64014 83.1733 10.125C83.6885 10.6023 83.946 11.1742 83.946 11.8409C83.946 12.5151 83.6885 13.0947 83.1733 13.5795C82.6657 14.0568 82.0521 14.2954 81.3324 14.2954Z" fill="#4543F2"/>
<path d="M87.6193 34V16.5454H92.233V19.625H92.4375C92.8011 18.6023 93.4072 17.7954 94.2557 17.2045C95.1042 16.6136 96.1193 16.3182 97.3011 16.3182C98.4981 16.3182 99.5171 16.6174 100.358 17.2159C101.199 17.8068 101.759 18.6098 102.04 19.625H102.222C102.578 18.625 103.222 17.8258 104.153 17.2273C105.093 16.6212 106.203 16.3182 107.483 16.3182C109.112 16.3182 110.434 16.8371 111.449 17.875C112.472 18.9053 112.983 20.3674 112.983 22.2614V34H108.153V23.2159C108.153 22.2462 107.896 21.5189 107.381 21.0341C106.866 20.5492 106.222 20.3068 105.449 20.3068C104.57 20.3068 103.884 20.5871 103.392 21.1477C102.9 21.7008 102.653 22.4318 102.653 23.3409V34H97.9602V23.1136C97.9602 22.2576 97.714 21.5758 97.2216 21.0682C96.7368 20.5606 96.0966 20.3068 95.3011 20.3068C94.7633 20.3068 94.2784 20.4432 93.8466 20.7159C93.4224 20.9811 93.0852 21.3561 92.8352 21.8409C92.5852 22.3182 92.4602 22.8788 92.4602 23.5227V34H87.6193Z" fill="#4543F2"/>
<path d="M116.898 34V10.7273H121.739V19.4773H121.886C122.098 19.0076 122.405 18.5303 122.807 18.0454C123.216 17.553 123.746 17.1439 124.398 16.8182C125.057 16.4848 125.875 16.3182 126.852 16.3182C128.125 16.3182 129.299 16.6515 130.375 17.3182C131.451 17.9773 132.311 18.9735 132.955 20.3068C133.598 21.6326 133.92 23.2954 133.92 25.2954C133.92 27.2424 133.606 28.8864 132.977 30.2273C132.356 31.5606 131.508 32.572 130.432 33.2614C129.364 33.9432 128.167 34.2841 126.841 34.2841C125.902 34.2841 125.102 34.1288 124.443 33.8182C123.792 33.5076 123.258 33.1174 122.841 32.6477C122.424 32.1705 122.106 31.6894 121.886 31.2045H121.67V34H116.898ZM121.636 25.2727C121.636 26.3106 121.78 27.2159 122.068 27.9886C122.356 28.7614 122.773 29.3636 123.318 29.7954C123.864 30.2197 124.527 30.4318 125.307 30.4318C126.095 30.4318 126.761 30.2159 127.307 29.7841C127.852 29.3447 128.265 28.7386 128.545 27.9659C128.833 27.1856 128.977 26.2879 128.977 25.2727C128.977 24.2651 128.837 23.3788 128.557 22.6136C128.277 21.8485 127.864 21.25 127.318 20.8182C126.773 20.3864 126.102 20.1704 125.307 20.1704C124.519 20.1704 123.852 20.3788 123.307 20.7954C122.769 21.2121 122.356 21.803 122.068 22.5682C121.78 23.3333 121.636 24.2348 121.636 25.2727Z" fill="#4543F2"/>
<path d="M145.037 34.3409C143.272 34.3409 141.745 33.9659 140.457 33.2159C139.177 32.4583 138.188 31.4053 137.491 30.0568C136.795 28.7008 136.446 27.1288 136.446 25.3409C136.446 23.5379 136.795 21.9621 137.491 20.6136C138.188 19.2576 139.177 18.2045 140.457 17.4545C141.745 16.697 143.272 16.3182 145.037 16.3182C146.802 16.3182 148.325 16.697 149.605 17.4545C150.893 18.2045 151.885 19.2576 152.582 20.6136C153.279 21.9621 153.628 23.5379 153.628 25.3409C153.628 27.1288 153.279 28.7008 152.582 30.0568C151.885 31.4053 150.893 32.4583 149.605 33.2159C148.325 33.9659 146.802 34.3409 145.037 34.3409ZM145.06 30.5909C145.863 30.5909 146.533 30.3636 147.071 29.9091C147.609 29.447 148.014 28.8182 148.287 28.0227C148.567 27.2273 148.707 26.322 148.707 25.3068C148.707 24.2917 148.567 23.3864 148.287 22.5909C148.014 21.7954 147.609 21.1667 147.071 20.7045C146.533 20.2424 145.863 20.0114 145.06 20.0114C144.249 20.0114 143.567 20.2424 143.014 20.7045C142.469 21.1667 142.056 21.7954 141.776 22.5909C141.503 23.3864 141.366 24.2917 141.366 25.3068C141.366 26.322 141.503 27.2273 141.776 28.0227C142.056 28.8182 142.469 29.447 143.014 29.9091C143.567 30.3636 144.249 30.5909 145.06 30.5909Z" fill="#4543F2"/>
<path d="M164.662 34.3409C162.897 34.3409 161.37 33.9659 160.082 33.2159C158.802 32.4583 157.813 31.4053 157.116 30.0568C156.42 28.7008 156.071 27.1288 156.071 25.3409C156.071 23.5379 156.42 21.9621 157.116 20.6136C157.813 19.2576 158.802 18.2045 160.082 17.4545C161.37 16.697 162.897 16.3182 164.662 16.3182C166.427 16.3182 167.95 16.697 169.23 17.4545C170.518 18.2045 171.51 19.2576 172.207 20.6136C172.904 21.9621 173.253 23.5379 173.253 25.3409C173.253 27.1288 172.904 28.7008 172.207 30.0568C171.51 31.4053 170.518 32.4583 169.23 33.2159C167.95 33.9659 166.427 34.3409 164.662 34.3409ZM164.685 30.5909C165.488 30.5909 166.158 30.3636 166.696 29.9091C167.234 29.447 167.639 28.8182 167.912 28.0227C168.192 27.2273 168.332 26.322 168.332 25.3068C168.332 24.2917 168.192 23.3864 167.912 22.5909C167.639 21.7954 167.234 21.1667 166.696 20.7045C166.158 20.2424 165.488 20.0114 164.685 20.0114C163.874 20.0114 163.192 20.2424 162.639 20.7045C162.094 21.1667 161.681 21.7954 161.401 22.5909C161.128 23.3864 160.991 24.2917 160.991 25.3068C160.991 26.322 161.128 27.2273 161.401 28.0227C161.681 28.8182 162.094 29.447 162.639 29.9091C163.192 30.3636 163.874 30.5909 164.685 30.5909Z" fill="#4543F2"/>
<path d="M180.787 28.9773L180.798 23.1704H181.503L187.094 16.5454H192.651L185.139 25.3182H183.991L180.787 28.9773ZM176.401 34V10.7273H181.241V34H176.401ZM187.31 34L182.173 26.3977L185.401 22.9773L192.98 34H187.31Z" fill="#4543F2"/>
</svg>
